<svg width="320" height="320" viewBox="0 0 320 320" fill="none" xmlns="http://www.w3.org/2000/svg">
<circle cx="160" cy="160" r="160" fill="#A70D34"/>
<mask id="mask0_1040_181749" style="mask-type:alpha" maskUnits="userSpaceOnUse" x="186" y="80" width="54" height="160">
<path d="M239.738 228.325C239.738 234.626 234.63 239.734 228.329 239.734V239.734C205.224 239.734 186.494 221.004 186.494 197.9V121.466C186.494 98.5946 205.035 80.0538 227.906 80.0538V80.0538C234.441 80.0538 239.738 85.3512 239.738 91.8858V228.325Z" fill="url(#paint0_linear_1040_181749)"/>
</mask>
<g mask="url(#mask0_1040_181749)">
<path d="M239.738 226.428C239.738 233.777 233.781 239.734 226.432 239.734H186.477C157.081 239.734 133.25 215.904 133.25 186.508V186.508C133.25 157.111 157.089 133.281 186.486 133.281V133.281C215.892 133.281 239.738 157.119 239.738 186.525V226.428Z" fill="url(#paint1_linear_1040_181749)"/>
<path d="M239.738 226.428C239.738 233.777 233.781 239.734 226.432 239.734H186.477C157.081 239.734 133.25 215.904 133.25 186.508V186.508C133.25 157.111 157.089 133.281 186.486 133.281V133.281C215.892 133.281 239.738 157.119 239.738 186.525V226.428Z" fill="url(#paint2_linear_1040_181749)"/>
</g>
<mask id="mask1_1040_181749" style="mask-type:alpha" maskUnits="userSpaceOnUse" x="80" y="80" width="54" height="160">
<path d="M80 91.4094C80 85.1082 85.1082 80 91.4094 80V80C114.514 80 133.244 98.73 133.244 121.835V198.269C133.244 221.14 114.703 239.681 91.832 239.681V239.681C85.2974 239.681 80 234.383 80 227.849V91.4094Z" fill="url(#paint3_linear_1040_181749)"/>
</mask>
<g mask="url(#mask1_1040_181749)">
<path d="M80 93.3067C80 85.9576 85.9576 80 93.3067 80H133.261C162.658 80 186.488 103.83 186.488 133.227V133.227C186.488 162.623 162.649 186.454 133.253 186.454V186.454C103.847 186.454 80 162.616 80 133.21V93.3067Z" fill="url(#paint4_linear_1040_181749)"/>
<path d="M80 93.3067C80 85.9576 85.9576 80 93.3067 80H133.261C162.658 80 186.488 103.83 186.488 133.227V133.227C186.488 162.623 162.649 186.454 133.253 186.454V186.454C103.847 186.454 80 162.616 80 133.21V93.3067Z" fill="url(#paint5_linear_1040_181749)"/>
</g>
<path d="M80.0039 93.3595C80.0039 86.0104 85.9615 80.0527 93.3106 80.0527H133.265C162.661 80.0527 186.492 103.883 186.492 133.28V133.28C186.492 162.676 162.653 186.506 133.257 186.506V186.506C103.851 186.506 80.0039 162.668 80.0039 133.262V93.3595Z" fill="url(#paint6_linear_1040_181749)"/>
<path d="M240.004 226.695C240.004 234.044 234.046 240.002 226.697 240.002H186.743C157.346 240.002 133.516 216.171 133.516 186.775V186.775C133.516 157.379 157.355 133.548 186.751 133.548V133.548C216.157 133.548 240.004 157.386 240.004 186.792V226.695Z" fill="url(#paint7_linear_1040_181749)"/>
<defs>
<linearGradient id="paint0_linear_1040_181749" x1="213.116" y1="239.734" x2="213.116" y2="80.0538" gradientUnits="userSpaceOnUse">
<stop stop-color="white"/>
<stop offset="1" stop-color="white" stop-opacity="0"/>
</linearGradient>
<linearGradient id="paint1_linear_1040_181749" x1="186.494" y1="239.734" x2="186.494" y2="133.281" gradientUnits="userSpaceOnUse">
<stop stop-color="white"/>
<stop offset="1" stop-color="white" stop-opacity="0"/>
</linearGradient>
<linearGradient id="paint2_linear_1040_181749" x1="186.494" y1="239.734" x2="186.494" y2="133.281" gradientUnits="userSpaceOnUse">
<stop stop-color="white"/>
<stop offset="1" stop-color="white" stop-opacity="0"/>
</linearGradient>
<linearGradient id="paint3_linear_1040_181749" x1="106.622" y1="80" x2="106.622" y2="239.681" gradientUnits="userSpaceOnUse">
<stop stop-color="white"/>
<stop offset="1" stop-color="white" stop-opacity="0"/>
</linearGradient>
<linearGradient id="paint4_linear_1040_181749" x1="133.244" y1="80" x2="133.244" y2="186.454" gradientUnits="userSpaceOnUse">
<stop stop-color="white"/>
<stop offset="1" stop-color="white" stop-opacity="0"/>
</linearGradient>
<linearGradient id="paint5_linear_1040_181749" x1="133.244" y1="80" x2="133.244" y2="186.454" gradientUnits="userSpaceOnUse">
<stop stop-color="white"/>
<stop offset="1" stop-color="white" stop-opacity="0"/>
</linearGradient>
<linearGradient id="paint6_linear_1040_181749" x1="114.508" y1="80.1035" x2="168.497" y2="170.155" gradientUnits="userSpaceOnUse">
<stop stop-color="white" stop-opacity="0"/>
<stop offset="1" stop-color="white" stop-opacity="0.75"/>
</linearGradient>
<linearGradient id="paint7_linear_1040_181749" x1="205.5" y1="239.951" x2="151.511" y2="149.9" gradientUnits="userSpaceOnUse">
<stop stop-color="white" stop-opacity="0"/>
<stop offset="1" stop-color="white" stop-opacity="0.75"/>
</linearGradient>
</defs>
</svg>
