<?xml version="1.0" standalone="no"?>
<!DOCTYPE svg PUBLIC "-//W3C//DTD SVG 1.1//EN" "http://www.w3.org/Graphics/SVG/1.1/DTD/svg11.dtd">
<svg xmlns="http://www.w3.org/2000/svg" xmlns:xlink="http://www.w3.org/1999/xlink" width="1024" height="1024" viewBox="0 0 1024 1024" version="1.1">
    <title>编组 16备份</title>
    <g id="招聘" stroke="none" stroke-width="1" fill="none" fill-rule="evenodd">
        <g id="编组-16备份">
            <rect id="矩形" fill="#FFFFFF" x="0" y="0" width="1024" height="1024" rx="512"/>
            <path d="M394.10913,721.940561 L541.325161,584.605925 C550.990384,574.631507 566.736611,555.479211 560.953965,531.633994 C552.562651,497.02959 511.934952,491.385136 496.178911,464.9286 C520.385153,439.439291 570.7688,397.096105 547.213802,366.832431 C523.658804,336.568758 491.909647,329.699108 456.921303,319.746271 L456.921303,653.273243 L347,653.273243 L347,270.698186 L452.995542,225.573949 C486.912153,217.333871 519.656924,243.676616 541.325161,253.040876 C639.406369,295.418421 713.777945,342.781213 629.65478,453.157059 C669.202894,471.761979 691.018347,542.938597 666.949507,594.415542 C643.693763,644.153665 577.543079,710.992491 468.497455,794.93202 L468.498473,794.933342 C461.567525,800.268952 451.941239,800.370424 444.899357,795.182104 C400.108175,762.173329 383.178314,737.759189 394.10913,721.940561 Z M405.886412,288.355497 L405.886412,331.517811 L445.144021,331.517811 L445.144021,288.355497 L405.886412,288.355497 Z M362.703043,337.403581 L362.703043,382.527818 L401.960652,382.527818 L401.960652,337.403581 L362.703043,337.403581 Z M449.069781,437.461673 L449.069781,394.299358 L407.849293,394.299358 L407.849293,437.461673 L449.069781,437.461673 Z M360.740163,445.309366 L360.740163,490.433603 L399.997771,490.433603 L399.997771,445.309366 L360.740163,445.309366 Z M405.886412,496.319374 L405.886412,541.443611 L447.106901,541.443611 L447.106901,496.319374 L405.886412,496.319374 Z M360.740163,545.367458 L360.740163,588.529772 L401.960652,588.529772 C401.306358,574.142334 400.652065,559.754896 399.997771,545.367458 L360.740163,545.367458 Z M407.849293,594.415542 L407.849293,637.577856 L449.069781,637.577856 L449.069781,594.415542 L407.849293,594.415542 Z" id="圆角矩形_1" fill="#2167C8"/>
        </g>
    </g>
</svg>