<svg xmlns="http://www.w3.org/2000/svg" viewBox="0 0 1167 1167"><defs><style>.cls-1{fill:#ffc3cd;}.cls-2{fill:#fff;}.cls-3{fill:#ffb4c1;}.cls-4{fill:#ffe8ec;}</style></defs><g id="图层_2" data-name="图层 2"><g id="图层_1-2" data-name="图层 1"><polygon class="cls-1" points="145.88 145.88 583.5 145.88 583.5 0 0 0 0 291.75 145.88 291.75 145.88 145.88"/><polygon class="cls-1" points="145.88 729.38 0 729.38 0 1167 437.63 1167 437.63 1021.13 145.88 1021.13 145.88 729.38"/><polygon class="cls-1" points="729.38 0 729.38 145.88 1021.13 145.88 1021.13 1021.13 583.5 1021.13 583.5 1167 1167 1167 1167 0 729.38 0"/><path class="cls-2" d="M291.75,291.75V729.38H729.38V291.75ZM583.5,583.5H437.62V437.62H583.5Z"/><rect class="cls-3" x="437.63" y="437.63" width="145.88" height="145.88"/><polygon class="cls-4" points="875.25 145.88 729.38 145.88 729.38 729.38 145.88 729.38 145.88 875.25 145.88 1021.13 1021.13 1021.13 1021.13 145.88 875.25 145.88"/><polygon class="cls-4" points="291.75 291.75 583.5 291.75 583.5 145.88 145.88 145.88 145.88 291.75 145.88 583.5 291.75 583.5 291.75 291.75"/></g></g></svg>